<?xml version="1.0" encoding="utf-8"?>
<!DOCTYPE svg PUBLIC "-//W3C//DTD SVG 1.1//EN" "http://www.w3.org/Graphics/SVG/1.1/DTD/svg11.dtd">
<svg version="1.1" id="Layer_1" xmlns="http://www.w3.org/2000/svg" x="0px" y="0px" width="640px" height="20px">
  <g transform="translate(2,6)">
    <g transform="scale(0.05) rotate(-20)">
      <path fill="#6B4227" d="M248.078,5.883c-36.691-14.739-77.771-0.839-98.517,31.125C128.817,5.044,87.735-8.856,51.043,5.883C9.354,22.632-10.863,70.009,5.887,111.696c16.06,39.98,143.314,139.607,143.314,139.607l0.359,0.28l0.36-0.28c0,0,127.251-99.627,143.314-139.607C309.986,70.009,289.768,22.632,248.078,5.883z"/>
    </g>
  </g>
  <g transform="translate(22,6)">
    <g transform="scale(0.05) rotate(-20)">
      <path fill="#6B4227" opacity="0.966" d="M248.078,5.883c-36.691-14.739-77.771-0.839-98.517,31.125C128.817,5.044,87.735-8.856,51.043,5.883C9.354,22.632-10.863,70.009,5.887,111.696c16.06,39.98,143.314,139.607,143.314,139.607l0.359,0.28l0.36-0.28c0,0,127.251-99.627,143.314-139.607C309.986,70.009,289.768,22.632,248.078,5.883z"/>
    </g>
  </g>
  <g transform="translate(42,6)">
    <g transform="scale(0.05) rotate(-20)">
      <path fill="#6B4227" opacity="0.933" d="M248.078,5.883c-36.691-14.739-77.771-0.839-98.517,31.125C128.817,5.044,87.735-8.856,51.043,5.883C9.354,22.632-10.863,70.009,5.887,111.696c16.06,39.98,143.314,139.607,143.314,139.607l0.359,0.28l0.36-0.28c0,0,127.251-99.627,143.314-139.607C309.986,70.009,289.768,22.632,248.078,5.883z"/>
    </g>
  </g>
  <g transform="translate(62,6)">
    <g transform="scale(0.05) rotate(-20)">
      <path fill="#6B4227" opacity="0.9" d="M248.078,5.883c-36.691-14.739-77.771-0.839-98.517,31.125C128.817,5.044,87.735-8.856,51.043,5.883C9.354,22.632-10.863,70.009,5.887,111.696c16.06,39.98,143.314,139.607,143.314,139.607l0.359,0.28l0.36-0.28c0,0,127.251-99.627,143.314-139.607C309.986,70.009,289.768,22.632,248.078,5.883z"/>
    </g>
  </g>
  <g transform="translate(82,6)">
    <g transform="scale(0.05) rotate(-20)">
      <path fill="#6B4227" opacity="0.866" d="M248.078,5.883c-36.691-14.739-77.771-0.839-98.517,31.125C128.817,5.044,87.735-8.856,51.043,5.883C9.354,22.632-10.863,70.009,5.887,111.696c16.06,39.98,143.314,139.607,143.314,139.607l0.359,0.28l0.36-0.28c0,0,127.251-99.627,143.314-139.607C309.986,70.009,289.768,22.632,248.078,5.883z"/>
    </g>
  </g>
  <g transform="translate(102,6)">
    <g transform="scale(0.05) rotate(-20)">
      <path fill="#6B4227" opacity="0.833" d="M248.078,5.883c-36.691-14.739-77.771-0.839-98.517,31.125C128.817,5.044,87.735-8.856,51.043,5.883C9.354,22.632-10.863,70.009,5.887,111.696c16.06,39.98,143.314,139.607,143.314,139.607l0.359,0.28l0.36-0.28c0,0,127.251-99.627,143.314-139.607C309.986,70.009,289.768,22.632,248.078,5.883z"/>
    </g>
  </g>
  <g transform="translate(122,6)">
    <g transform="scale(0.05) rotate(-20)">
      <path fill="#6B4227" opacity="0.8" d="M248.078,5.883c-36.691-14.739-77.771-0.839-98.517,31.125C128.817,5.044,87.735-8.856,51.043,5.883C9.354,22.632-10.863,70.009,5.887,111.696c16.06,39.98,143.314,139.607,143.314,139.607l0.359,0.28l0.36-0.28c0,0,127.251-99.627,143.314-139.607C309.986,70.009,289.768,22.632,248.078,5.883z"/>
    </g>
  </g>
  <g transform="translate(142,6)">
    <g transform="scale(0.05) rotate(-20)">
      <path fill="#6B4227" opacity="0.766" d="M248.078,5.883c-36.691-14.739-77.771-0.839-98.517,31.125C128.817,5.044,87.735-8.856,51.043,5.883C9.354,22.632-10.863,70.009,5.887,111.696c16.06,39.98,143.314,139.607,143.314,139.607l0.359,0.28l0.36-0.28c0,0,127.251-99.627,143.314-139.607C309.986,70.009,289.768,22.632,248.078,5.883z"/>
    </g>
  </g>
  <g transform="translate(162,6)">
    <g transform="scale(0.05) rotate(-20)">
      <path fill="#6B4227" opacity="0.733" d="M248.078,5.883c-36.691-14.739-77.771-0.839-98.517,31.125C128.817,5.044,87.735-8.856,51.043,5.883C9.354,22.632-10.863,70.009,5.887,111.696c16.06,39.98,143.314,139.607,143.314,139.607l0.359,0.28l0.36-0.28c0,0,127.251-99.627,143.314-139.607C309.986,70.009,289.768,22.632,248.078,5.883z"/>
    </g>
  </g>
  <g transform="translate(182,6)">
    <g transform="scale(0.05) rotate(-20)">
      <path fill="#6B4227" opacity="0.7" d="M248.078,5.883c-36.691-14.739-77.771-0.839-98.517,31.125C128.817,5.044,87.735-8.856,51.043,5.883C9.354,22.632-10.863,70.009,5.887,111.696c16.06,39.98,143.314,139.607,143.314,139.607l0.359,0.28l0.36-0.28c0,0,127.251-99.627,143.314-139.607C309.986,70.009,289.768,22.632,248.078,5.883z"/>
    </g>
  </g>
  <g transform="translate(202,6)">
    <g transform="scale(0.05) rotate(-20)">
      <path fill="#6B4227" opacity="0.666" d="M248.078,5.883c-36.691-14.739-77.771-0.839-98.517,31.125C128.817,5.044,87.735-8.856,51.043,5.883C9.354,22.632-10.863,70.009,5.887,111.696c16.06,39.98,143.314,139.607,143.314,139.607l0.359,0.28l0.36-0.28c0,0,127.251-99.627,143.314-139.607C309.986,70.009,289.768,22.632,248.078,5.883z"/>
    </g>
  </g>
  <g transform="translate(222,6)">
    <g transform="scale(0.05) rotate(-20)">
      <path fill="#6B4227" opacity="0.633" d="M248.078,5.883c-36.691-14.739-77.771-0.839-98.517,31.125C128.817,5.044,87.735-8.856,51.043,5.883C9.354,22.632-10.863,70.009,5.887,111.696c16.06,39.98,143.314,139.607,143.314,139.607l0.359,0.28l0.36-0.28c0,0,127.251-99.627,143.314-139.607C309.986,70.009,289.768,22.632,248.078,5.883z"/>
    </g>
  </g>
  <g transform="translate(242,6)">
    <g transform="scale(0.05) rotate(-20)">
      <path fill="#6B4227" opacity="0.6" d="M248.078,5.883c-36.691-14.739-77.771-0.839-98.517,31.125C128.817,5.044,87.735-8.856,51.043,5.883C9.354,22.632-10.863,70.009,5.887,111.696c16.06,39.98,143.314,139.607,143.314,139.607l0.359,0.28l0.36-0.28c0,0,127.251-99.627,143.314-139.607C309.986,70.009,289.768,22.632,248.078,5.883z"/>
    </g>
  </g>
  <g transform="translate(262,6)">
    <g transform="scale(0.05) rotate(-20)">
      <path fill="#6B4227" opacity="0.566" d="M248.078,5.883c-36.691-14.739-77.771-0.839-98.517,31.125C128.817,5.044,87.735-8.856,51.043,5.883C9.354,22.632-10.863,70.009,5.887,111.696c16.06,39.98,143.314,139.607,143.314,139.607l0.359,0.28l0.36-0.28c0,0,127.251-99.627,143.314-139.607C309.986,70.009,289.768,22.632,248.078,5.883z"/>
    </g>
  </g>
  <g transform="translate(282,6)">
    <g transform="scale(0.05) rotate(-20)">
      <path fill="#6B4227" opacity="0.533" d="M248.078,5.883c-36.691-14.739-77.771-0.839-98.517,31.125C128.817,5.044,87.735-8.856,51.043,5.883C9.354,22.632-10.863,70.009,5.887,111.696c16.06,39.98,143.314,139.607,143.314,139.607l0.359,0.28l0.36-0.28c0,0,127.251-99.627,143.314-139.607C309.986,70.009,289.768,22.632,248.078,5.883z"/>
    </g>
  </g>
  <g transform="translate(302,6)">
    <g transform="scale(0.05) rotate(-20)">
      <path fill="#6B4227" opacity="0.5" d="M248.078,5.883c-36.691-14.739-77.771-0.839-98.517,31.125C128.817,5.044,87.735-8.856,51.043,5.883C9.354,22.632-10.863,70.009,5.887,111.696c16.06,39.98,143.314,139.607,143.314,139.607l0.359,0.28l0.36-0.28c0,0,127.251-99.627,143.314-139.607C309.986,70.009,289.768,22.632,248.078,5.883z"/>
    </g>
  </g>
  <g transform="translate(322,6)">
    <g transform="scale(0.05) rotate(-20)">
      <path fill="#6B4227" opacity="0.466" d="M248.078,5.883c-36.691-14.739-77.771-0.839-98.517,31.125C128.817,5.044,87.735-8.856,51.043,5.883C9.354,22.632-10.863,70.009,5.887,111.696c16.06,39.98,143.314,139.607,143.314,139.607l0.359,0.28l0.36-0.28c0,0,127.251-99.627,143.314-139.607C309.986,70.009,289.768,22.632,248.078,5.883z"/>
    </g>
  </g>
  <g transform="translate(342,6)">
    <g transform="scale(0.05) rotate(-20)">
      <path fill="#6B4227" opacity="0.433" d="M248.078,5.883c-36.691-14.739-77.771-0.839-98.517,31.125C128.817,5.044,87.735-8.856,51.043,5.883C9.354,22.632-10.863,70.009,5.887,111.696c16.06,39.98,143.314,139.607,143.314,139.607l0.359,0.28l0.36-0.28c0,0,127.251-99.627,143.314-139.607C309.986,70.009,289.768,22.632,248.078,5.883z"/>
    </g>
  </g>
  <g transform="translate(362,6)">
    <g transform="scale(0.05) rotate(-20)">
      <path fill="#6B4227" opacity="0.4" d="M248.078,5.883c-36.691-14.739-77.771-0.839-98.517,31.125C128.817,5.044,87.735-8.856,51.043,5.883C9.354,22.632-10.863,70.009,5.887,111.696c16.06,39.98,143.314,139.607,143.314,139.607l0.359,0.28l0.36-0.28c0,0,127.251-99.627,143.314-139.607C309.986,70.009,289.768,22.632,248.078,5.883z"/>
    </g>
  </g>
  <g transform="translate(382,6)">
    <g transform="scale(0.05) rotate(-20)">
      <path fill="#6B4227" opacity="0.366" d="M248.078,5.883c-36.691-14.739-77.771-0.839-98.517,31.125C128.817,5.044,87.735-8.856,51.043,5.883C9.354,22.632-10.863,70.009,5.887,111.696c16.06,39.98,143.314,139.607,143.314,139.607l0.359,0.28l0.36-0.28c0,0,127.251-99.627,143.314-139.607C309.986,70.009,289.768,22.632,248.078,5.883z"/>
    </g>
  </g>
  <g transform="translate(402,6)">
    <g transform="scale(0.05) rotate(-20)">
      <path fill="#6B4227" opacity="0.333" d="M248.078,5.883c-36.691-14.739-77.771-0.839-98.517,31.125C128.817,5.044,87.735-8.856,51.043,5.883C9.354,22.632-10.863,70.009,5.887,111.696c16.06,39.98,143.314,139.607,143.314,139.607l0.359,0.28l0.36-0.28c0,0,127.251-99.627,143.314-139.607C309.986,70.009,289.768,22.632,248.078,5.883z"/>
    </g>
  </g>
  <g transform="translate(422,6)">
    <g transform="scale(0.05) rotate(-20)">
      <path fill="#6B4227" opacity="0.3" d="M248.078,5.883c-36.691-14.739-77.771-0.839-98.517,31.125C128.817,5.044,87.735-8.856,51.043,5.883C9.354,22.632-10.863,70.009,5.887,111.696c16.06,39.98,143.314,139.607,143.314,139.607l0.359,0.28l0.36-0.28c0,0,127.251-99.627,143.314-139.607C309.986,70.009,289.768,22.632,248.078,5.883z"/>
    </g>
  </g>
  <g transform="translate(442,6)">
    <g transform="scale(0.05) rotate(-20)">
      <path fill="#6B4227" opacity="0.266" d="M248.078,5.883c-36.691-14.739-77.771-0.839-98.517,31.125C128.817,5.044,87.735-8.856,51.043,5.883C9.354,22.632-10.863,70.009,5.887,111.696c16.06,39.98,143.314,139.607,143.314,139.607l0.359,0.28l0.36-0.28c0,0,127.251-99.627,143.314-139.607C309.986,70.009,289.768,22.632,248.078,5.883z"/>
    </g>
  </g>
  <g transform="translate(462,6)">
    <g transform="scale(0.05) rotate(-20)">
      <path fill="#6B4227" opacity="0.233" d="M248.078,5.883c-36.691-14.739-77.771-0.839-98.517,31.125C128.817,5.044,87.735-8.856,51.043,5.883C9.354,22.632-10.863,70.009,5.887,111.696c16.06,39.98,143.314,139.607,143.314,139.607l0.359,0.28l0.36-0.28c0,0,127.251-99.627,143.314-139.607C309.986,70.009,289.768,22.632,248.078,5.883z"/>
    </g>
  </g>
  <g transform="translate(482,6)">
    <g transform="scale(0.05) rotate(-20)">
      <path fill="#6B4227" opacity="0.2" d="M248.078,5.883c-36.691-14.739-77.771-0.839-98.517,31.125C128.817,5.044,87.735-8.856,51.043,5.883C9.354,22.632-10.863,70.009,5.887,111.696c16.06,39.98,143.314,139.607,143.314,139.607l0.359,0.28l0.36-0.28c0,0,127.251-99.627,143.314-139.607C309.986,70.009,289.768,22.632,248.078,5.883z"/>
    </g>
  </g>
  <g transform="translate(502,6)">
    <g transform="scale(0.05) rotate(-20)">
      <path fill="#6B4227" opacity="0.166" d="M248.078,5.883c-36.691-14.739-77.771-0.839-98.517,31.125C128.817,5.044,87.735-8.856,51.043,5.883C9.354,22.632-10.863,70.009,5.887,111.696c16.06,39.98,143.314,139.607,143.314,139.607l0.359,0.28l0.36-0.28c0,0,127.251-99.627,143.314-139.607C309.986,70.009,289.768,22.632,248.078,5.883z"/>
    </g>
  </g>
  <g transform="translate(522,6)">
    <g transform="scale(0.05) rotate(-20)">
      <path fill="#6B4227" opacity="0.133" d="M248.078,5.883c-36.691-14.739-77.771-0.839-98.517,31.125C128.817,5.044,87.735-8.856,51.043,5.883C9.354,22.632-10.863,70.009,5.887,111.696c16.06,39.98,143.314,139.607,143.314,139.607l0.359,0.28l0.36-0.28c0,0,127.251-99.627,143.314-139.607C309.986,70.009,289.768,22.632,248.078,5.883z"/>
    </g>
  </g>
  <g transform="translate(542,6)">
    <g transform="scale(0.05) rotate(-20)">
      <path fill="#6B4227" opacity="0.1" d="M248.078,5.883c-36.691-14.739-77.771-0.839-98.517,31.125C128.817,5.044,87.735-8.856,51.043,5.883C9.354,22.632-10.863,70.009,5.887,111.696c16.06,39.98,143.314,139.607,143.314,139.607l0.359,0.28l0.36-0.28c0,0,127.251-99.627,143.314-139.607C309.986,70.009,289.768,22.632,248.078,5.883z"/>
    </g>
  </g>
  <g transform="translate(562,6)">
    <g transform="scale(0.05) rotate(-20)">
      <path fill="#6B4227" opacity="0.066" d="M248.078,5.883c-36.691-14.739-77.771-0.839-98.517,31.125C128.817,5.044,87.735-8.856,51.043,5.883C9.354,22.632-10.863,70.009,5.887,111.696c16.06,39.98,143.314,139.607,143.314,139.607l0.359,0.28l0.36-0.28c0,0,127.251-99.627,143.314-139.607C309.986,70.009,289.768,22.632,248.078,5.883z"/>
    </g>
  </g>
  <g transform="translate(582,6)">
    <g transform="scale(0.05) rotate(-20)">
      <path fill="#6B4227" opacity="0.033" d="M248.078,5.883c-36.691-14.739-77.771-0.839-98.517,31.125C128.817,5.044,87.735-8.856,51.043,5.883C9.354,22.632-10.863,70.009,5.887,111.696c16.06,39.98,143.314,139.607,143.314,139.607l0.359,0.28l0.36-0.28c0,0,127.251-99.627,143.314-139.607C309.986,70.009,289.768,22.632,248.078,5.883z"/>
    </g>
  </g>
</svg>
